<?xml version="1.0" encoding="UTF-8" standalone="no"?>
<!-- Created with Inkscape (http://www.inkscape.org/) -->

<svg
   width="512"
   height="512"
   viewBox="0 0 512 512"
   version="1.1"
   id="svg1"
   inkscape:export-filename="../db3a8132/bitmap.png"
   inkscape:export-xdpi="96"
   inkscape:export-ydpi="96"
   inkscape:version="1.4.1-rc (d9e8dc1fe0, 2025-03-10)"
   sodipodi:docname="bitmap.svg"
   xmlns:inkscape="http://www.inkscape.org/namespaces/inkscape"
   xmlns:sodipodi="http://sodipodi.sourceforge.net/DTD/sodipodi-0.dtd"
   xmlns:xlink="http://www.w3.org/1999/xlink"
   xmlns="http://www.w3.org/2000/svg"
   xmlns:svg="http://www.w3.org/2000/svg">
  <sodipodi:namedview
     id="namedview1"
     pagecolor="#505050"
     bordercolor="#eeeeee"
     borderopacity="1"
     inkscape:showpageshadow="0"
     inkscape:pageopacity="0"
     inkscape:pagecheckerboard="0"
     inkscape:deskcolor="#505050"
     inkscape:document-units="px"
     inkscape:zoom="1.28"
     inkscape:cx="880.46873"
     inkscape:cy="322.26562"
     inkscape:window-width="1920"
     inkscape:window-height="1131"
     inkscape:window-x="0"
     inkscape:window-y="0"
     inkscape:window-maximized="1"
     inkscape:current-layer="layer1-7">
    <inkscape:page
       x="0"
       y="0"
       width="512"
       height="512"
       id="page27"
       margin="0"
       bleed="0" />
    <inkscape:page
       x="522"
       y="0"
       width="512"
       height="512"
       id="page28"
       margin="0"
       bleed="0"
       inkscape:export-filename="../db3a8132/bitmap.png"
       inkscape:export-xdpi="96"
       inkscape:export-ydpi="96" />
  </sodipodi:namedview>
  <defs
     id="defs1">
    <linearGradient
       id="linearGradient34"
       inkscape:collect="always">
      <stop
         style="stop-color:#000000;stop-opacity:1;"
         offset="0"
         id="stop34" />
      <stop
         style="stop-color:#0a0000;stop-opacity:1;"
         offset="0.32755297"
         id="stop37" />
      <stop
         style="stop-color:#fe0000;stop-opacity:1;"
         offset="0.80732179"
         id="stop36" />
      <stop
         style="stop-color:#f9c1c1;stop-opacity:1;"
         offset="1"
         id="stop35" />
    </linearGradient>
    <rect
       x="651.86405"
       y="214.89417"
       width="304.38736"
       height="368.46892"
       id="rect32" />
    <linearGradient
       id="linearGradient4"
       inkscape:collect="always">
      <stop
         style="stop-color:#002aff;stop-opacity:1;"
         offset="0"
         id="stop1" />
      <stop
         style="stop-color:#70ff8d;stop-opacity:1;"
         offset="0.38436481"
         id="stop2" />
      <stop
         style="stop-color:#d4ff2a;stop-opacity:1;"
         offset="0.66775244"
         id="stop3" />
      <stop
         style="stop-color:#e20000;stop-opacity:1;"
         offset="1"
         id="stop4" />
    </linearGradient>
    <linearGradient
       id="linearGradient54"
       inkscape:collect="always">
      <stop
         style="stop-color:#002aff;stop-opacity:1;"
         offset="0"
         id="stop55" />
      <stop
         style="stop-color:#70ff8d;stop-opacity:1;"
         offset="0.38436481"
         id="stop58" />
      <stop
         style="stop-color:#d4ff2a;stop-opacity:1;"
         offset="0.66775244"
         id="stop57" />
      <stop
         style="stop-color:#e20000;stop-opacity:1;"
         offset="1"
         id="stop56" />
    </linearGradient>
    <inkscape:path-effect
       effect="powerstroke"
       message=""
       id="path-effect26"
       is_visible="true"
       lpeversion="1.3"
       scale_width="1"
       interpolator_type="CentripetalCatmullRom"
       interpolator_beta="0.75"
       start_linecap_type="round"
       end_linecap_type="round"
       offset_points="2.4302432,5.8108449"
       linejoin_type="spiro"
       miter_limit="4"
       not_jump="true"
       sort_points="true" />
    <inkscape:path-effect
       effect="simplify"
       id="path-effect25"
       is_visible="true"
       lpeversion="1.3"
       threshold="0.6"
       steps="1"
       smooth_angles="0"
       helper_size="0"
       simplify_individual_paths="false"
       simplify_just_coalesce="false"
       step="1" />
    <inkscape:path-effect
       effect="powerstroke"
       message=""
       id="path-effect24"
       is_visible="true"
       lpeversion="1.3"
       scale_width="1"
       interpolator_type="CentripetalCatmullRom"
       interpolator_beta="0.75"
       start_linecap_type="round"
       end_linecap_type="round"
       offset_points="2.4324132,5.8108449"
       linejoin_type="spiro"
       miter_limit="4"
       not_jump="true"
       sort_points="true" />
    <inkscape:path-effect
       effect="simplify"
       id="path-effect23"
       is_visible="true"
       lpeversion="1.3"
       threshold="0.6"
       steps="1"
       smooth_angles="0"
       helper_size="0"
       simplify_individual_paths="false"
       simplify_just_coalesce="false"
       step="1" />
    <inkscape:path-effect
       effect="powerstroke"
       message=""
       id="path-effect22"
       is_visible="true"
       lpeversion="1.3"
       scale_width="1"
       interpolator_type="CentripetalCatmullRom"
       interpolator_beta="0.75"
       start_linecap_type="round"
       end_linecap_type="round"
       offset_points="1.2576626,5.8108449"
       linejoin_type="spiro"
       miter_limit="4"
       not_jump="true"
       sort_points="true" />
    <inkscape:path-effect
       effect="simplify"
       id="path-effect21"
       is_visible="true"
       lpeversion="1.3"
       threshold="0.6"
       steps="1"
       smooth_angles="0"
       helper_size="0"
       simplify_individual_paths="false"
       simplify_just_coalesce="false"
       step="1" />
    <inkscape:path-effect
       effect="powerstroke"
       message=""
       id="path-effect20"
       is_visible="true"
       lpeversion="1.3"
       scale_width="1"
       interpolator_type="CentripetalCatmullRom"
       interpolator_beta="0.75"
       start_linecap_type="round"
       end_linecap_type="round"
       offset_points="2.9670521,5.8108449"
       linejoin_type="spiro"
       miter_limit="4"
       not_jump="true"
       sort_points="true" />
    <inkscape:path-effect
       effect="simplify"
       id="path-effect19"
       is_visible="true"
       lpeversion="1.3"
       threshold="0.6"
       steps="1"
       smooth_angles="0"
       helper_size="0"
       simplify_individual_paths="false"
       simplify_just_coalesce="false"
       step="1" />
    <inkscape:path-effect
       effect="powerstroke"
       message=""
       id="path-effect18"
       is_visible="true"
       lpeversion="1.3"
       scale_width="1"
       interpolator_type="CentripetalCatmullRom"
       interpolator_beta="0.75"
       start_linecap_type="round"
       end_linecap_type="round"
       offset_points="1.3723369,5.8108449"
       linejoin_type="spiro"
       miter_limit="4"
       not_jump="true"
       sort_points="true" />
    <inkscape:path-effect
       effect="simplify"
       id="path-effect17"
       is_visible="true"
       lpeversion="1.3"
       threshold="0.6"
       steps="1"
       smooth_angles="0"
       helper_size="0"
       simplify_individual_paths="false"
       simplify_just_coalesce="false"
       step="1" />
    <inkscape:path-effect
       effect="powerstroke"
       message=""
       id="path-effect16"
       is_visible="true"
       lpeversion="1.3"
       scale_width="1"
       interpolator_type="CentripetalCatmullRom"
       interpolator_beta="0.75"
       start_linecap_type="round"
       end_linecap_type="round"
       offset_points="2.3521091,5.8108449"
       linejoin_type="spiro"
       miter_limit="4"
       not_jump="true"
       sort_points="true" />
    <inkscape:path-effect
       effect="simplify"
       id="path-effect15"
       is_visible="true"
       lpeversion="1.3"
       threshold="0.6"
       steps="1"
       smooth_angles="0"
       helper_size="0"
       simplify_individual_paths="false"
       simplify_just_coalesce="false"
       step="1" />
    <inkscape:path-effect
       effect="powerstroke"
       message=""
       id="path-effect14"
       is_visible="true"
       lpeversion="1.3"
       scale_width="1"
       interpolator_type="CentripetalCatmullRom"
       interpolator_beta="0.75"
       start_linecap_type="round"
       end_linecap_type="round"
       offset_points="1.3337307,5.8108449"
       linejoin_type="spiro"
       miter_limit="4"
       not_jump="true"
       sort_points="true" />
    <inkscape:path-effect
       effect="simplify"
       id="path-effect13"
       is_visible="true"
       lpeversion="1.3"
       threshold="0.6"
       steps="1"
       smooth_angles="0"
       helper_size="0"
       simplify_individual_paths="false"
       simplify_just_coalesce="false"
       step="1" />
    <inkscape:path-effect
       effect="powerstroke"
       message=""
       id="path-effect12"
       is_visible="true"
       lpeversion="1.3"
       scale_width="1"
       interpolator_type="CentripetalCatmullRom"
       interpolator_beta="0.75"
       start_linecap_type="round"
       end_linecap_type="round"
       offset_points="2.1385725,5.8108449"
       linejoin_type="spiro"
       miter_limit="4"
       not_jump="true"
       sort_points="true" />
    <inkscape:path-effect
       effect="simplify"
       id="path-effect11"
       is_visible="true"
       lpeversion="1.3"
       threshold="0.6"
       steps="1"
       smooth_angles="0"
       helper_size="0"
       simplify_individual_paths="false"
       simplify_just_coalesce="false"
       step="1" />
    <inkscape:path-effect
       effect="powerstroke"
       message=""
       id="path-effect10"
       is_visible="true"
       lpeversion="1.3"
       scale_width="1"
       interpolator_type="CentripetalCatmullRom"
       interpolator_beta="0.75"
       start_linecap_type="round"
       end_linecap_type="round"
       offset_points="2.8317752,9.6847415"
       linejoin_type="spiro"
       miter_limit="4"
       not_jump="true"
       sort_points="true" />
    <inkscape:path-effect
       effect="simplify"
       id="path-effect9"
       is_visible="true"
       lpeversion="1.3"
       threshold="0.6"
       steps="1"
       smooth_angles="0"
       helper_size="0"
       simplify_individual_paths="false"
       simplify_just_coalesce="false"
       step="1" />
    <inkscape:path-effect
       effect="powerstroke"
       message=""
       id="path-effect8"
       is_visible="true"
       lpeversion="1.3"
       scale_width="1"
       interpolator_type="CentripetalCatmullRom"
       interpolator_beta="0.75"
       start_linecap_type="round"
       end_linecap_type="round"
       offset_points="1.5131469,9.6847415"
       linejoin_type="spiro"
       miter_limit="4"
       not_jump="true"
       sort_points="true" />
    <inkscape:path-effect
       effect="simplify"
       id="path-effect7"
       is_visible="true"
       lpeversion="1.3"
       threshold="0.6"
       steps="1"
       smooth_angles="0"
       helper_size="0"
       simplify_individual_paths="false"
       simplify_just_coalesce="false"
       step="1" />
    <inkscape:path-effect
       effect="powerstroke"
       message=""
       id="path-effect6"
       is_visible="true"
       lpeversion="1.3"
       scale_width="1"
       interpolator_type="CentripetalCatmullRom"
       interpolator_beta="0.75"
       start_linecap_type="round"
       end_linecap_type="round"
       offset_points="1.1953184,9.6847415"
       linejoin_type="spiro"
       miter_limit="4"
       not_jump="true"
       sort_points="true" />
    <inkscape:path-effect
       effect="simplify"
       id="path-effect5"
       is_visible="true"
       lpeversion="1.3"
       threshold="0.6"
       steps="1"
       smooth_angles="0"
       helper_size="0"
       simplify_individual_paths="false"
       simplify_just_coalesce="false"
       step="1" />
    <linearGradient
       inkscape:collect="always"
       xlink:href="#linearGradient54"
       id="linearGradient56"
       x1="287.18863"
       y1="451.95459"
       x2="347.84085"
       y2="451.95459"
       gradientUnits="userSpaceOnUse"
       gradientTransform="translate(-536.9592,-16.572815)" />
    <linearGradient
       inkscape:collect="always"
       xlink:href="#linearGradient54"
       id="linearGradient58"
       gradientUnits="userSpaceOnUse"
       x1="287.18863"
       y1="451.95459"
       x2="347.84085"
       y2="451.95459"
       gradientTransform="matrix(0,-1,-1,0,232.51014,752.89652)" />
    <linearGradient
       inkscape:collect="always"
       xlink:href="#linearGradient4"
       id="linearGradient60"
       gradientUnits="userSpaceOnUse"
       x1="29.087677"
       y1="51.651955"
       x2="85.613533"
       y2="52.651955"
       gradientTransform="translate(-536.9592,-16.572815)" />
    <linearGradient
       inkscape:collect="always"
       xlink:href="#linearGradient54"
       id="linearGradient64"
       gradientUnits="userSpaceOnUse"
       x1="56.850601"
       y1="23.889029"
       x2="55.850601"
       y2="80.414879"
       gradientTransform="translate(-536.9592,-16.572815)" />
    <linearGradient
       inkscape:collect="always"
       xlink:href="#linearGradient34"
       id="linearGradient35"
       x1="-76.627167"
       y1="444.82172"
       x2="-495.3674"
       y2="5.169373"
       gradientUnits="userSpaceOnUse"
       gradientTransform="translate(0.54151851,12.5322)" />
  </defs>
  <g
     inkscape:label="Layer 1"
     inkscape:groupmode="layer"
     id="layer1-7"
     transform="translate(1062.7092,20.322815)">
    <path
       style="fill:#000000;stroke:none;stroke-width:5;stroke-dasharray:none"
       d="m -243.83436,241.68696 -37.12484,-2.25977"
       id="path43-0" />
    <path
       id="rect31"
       style="fill:url(#linearGradient35);fill-opacity:1;stroke:none;stroke-width:5.5;stroke-linecap:round;stroke-opacity:1;paint-order:fill markers stroke"
       d="M -494.82588,17.701573 V 457.35392 H -76.08565 V 17.701573 Z m 26.50781,26.699218 h 80.9082 v 21.00586 h -28.78515 v 92.576169 h -23.33985 V 65.406651 h -28.7832 z m 118.87109,0 h 29.5625 l 28.16211,113.582029 h -23.80469 l -5.44531,-25.67187 h -27.07422 l -5.44531,25.67187 h -23.80469 z m 67.83985,0 h 80.90625 v 21.00586 h -28.78321 v 92.576169 h -23.33984 V 65.406651 h -28.7832 z m 97.40039,0 h 23.33789 v 44.1875 h 26.14062 v -44.1875 h 23.33789 V 157.98282 h -23.33789 v -48.38867 h -26.14062 v 48.38867 h -23.33789 z m -150.30274,21.00586 c -0.41491,2.178295 -0.98484,5.185488 -1.71093,9.023437 -0.62237,3.83795 -1.34986,7.728244 -2.17969,11.669922 l -5.75586,27.53906 h 19.13867 l -5.44727,-27.38281 c -0.72609,-3.941678 -1.50415,-7.831972 -2.33398,-11.669922 -0.7261,-3.941678 -1.29602,-7.001392 -1.71094,-9.179687 z m -87.13086,119.027339 h 80.90821 v 21.00586 h -28.78516 v 92.57618 h -23.33984 v -92.57618 h -28.78321 z m 97.40039,0 h 23.33789 v 44.18946 h 26.14063 v -44.18946 h 23.33789 v 113.58204 h -23.33789 v -48.38868 h -26.14063 v 48.38868 h -23.33789 z m 95.53321,0 h 70.01758 v 20.22657 h -47.14454 v 25.51758 h 41.69727 v 19.29296 h -41.69727 v 28.31836 h 47.14454 v 20.22657 h -70.01758 z M -427.2419,322.91251 c 7.6759,0 14.31469,1.45107 19.91602,4.35547 5.70506,2.80066 10.11276,6.74348 13.22461,11.82617 3.21558,5.08269 4.82421,11.09708 4.82421,18.04688 h -23.33984 c 0,-4.56405 -1.29546,-8.03808 -3.88867,-10.42383 -2.48948,-2.38575 -6.06855,-3.57813 -10.73633,-3.57813 -4.66778,0 -8.29937,1.19238 -10.89258,3.57813 -2.48948,2.38575 -3.73437,5.85978 -3.73437,10.42383 v 48.23437 c 0,4.46032 1.24489,7.9363 3.73437,10.42578 2.59321,2.38575 6.2248,3.57813 10.89258,3.57813 4.66778,0 8.24685,-1.19238 10.73633,-3.57813 2.59321,-2.48948 3.88867,-5.96546 3.88867,-10.42578 v -10.58008 h -16.80273 v -19.75976 h 40.14257 v 30.33984 c 0,6.84607 -1.60863,12.86241 -4.82421,18.04883 -3.11185,5.08269 -7.51955,9.07607 -13.22461,11.98047 -5.60133,2.80066 -12.24012,4.20117 -19.91602,4.20117 -7.57217,0 -14.21095,-1.40051 -19.91601,-4.20117 -5.70506,-2.9044 -10.16528,-6.89778 -13.38086,-11.98047 -3.11185,-5.18642 -4.66797,-11.20276 -4.66797,-18.04883 v -48.23437 c 0,-6.9498 1.55612,-12.96419 4.66797,-18.04688 3.21558,-5.08269 7.6758,-9.02551 13.38086,-11.82617 5.70506,-2.9044 12.34384,-4.35547 19.91601,-4.35547 z m 92.73242,0 c 11.41012,0 20.48618,3.21533 27.22852,9.64648 6.74234,6.32743 10.11328,15.03974 10.11328,26.13868 v 45.12304 c 0,10.99521 -3.37094,19.70752 -10.11328,26.13868 -6.74234,6.43115 -15.8184,9.64648 -27.22852,9.64648 -11.41012,0 -20.48617,-3.21533 -27.22851,-9.64648 -6.74235,-6.43116 -10.11328,-15.14347 -10.11328,-26.13868 v -45.12304 c 0,-11.09894 3.37093,-19.81125 10.11328,-26.13868 6.74234,-6.43115 15.81839,-9.64648 27.22851,-9.64648 z m 78.41797,1.55469 h 29.5625 l 28.16211,113.58203 h -23.80469 l -5.44531,-25.67188 h -27.07422 l -5.44531,25.67188 h -23.80469 z m 67.83789,0 h 80.90821 v 21.00586 h -28.78321 v 92.57617 h -23.33984 v -92.57617 h -28.78516 z m -146.25586,18.67187 c -9.33555,0 -14.0039,4.6664 -14.0039,14.00196 v 48.23437 c 0,9.33555 4.66835,14.00391 14.0039,14.00391 9.33556,0 14.00391,-4.66836 14.00391,-14.00391 v -48.23437 c 0,-9.33556 -4.66835,-14.00196 -14.00391,-14.00196 z m 93.35547,2.33399 c -0.41491,2.17829 -0.98484,5.18548 -1.71094,9.02343 -0.62237,3.83795 -1.34986,7.72825 -2.17968,11.66993 l -5.75586,27.53906 h 19.13672 l -5.44532,-27.38281 c -0.72609,-3.94168 -1.50415,-7.83198 -2.33398,-11.66993 -0.7261,-3.94167 -1.29602,-7.00139 -1.71094,-9.17968 z" />
    <path
       style="fill:#1cffe2;fill-opacity:1;stroke:none;stroke-width:5.5;stroke-linecap:round;stroke-opacity:1;paint-order:fill markers stroke"
       id="path49"
       sodipodi:type="arc"
       sodipodi:cx="-97.363701"
       sodipodi:cy="268.58932"
       sodipodi:rx="53.378891"
       sodipodi:ry="18.359375"
       sodipodi:start="5.5210388"
       sodipodi:end="5.0558407"
       sodipodi:open="true"
       sodipodi:arc-type="arc"
       d="m -58.751783,255.91262 a 53.378891,18.359375 0 0 1 2.476368,24.39638 53.378891,18.359375 0 0 1 -70.164635,3.67687 53.378891,18.359375 0 0 1 -18.75983,-23.54306 53.378891,18.359375 0 0 1 65.810945,-9.14063" />
    <path
       style="fill:#1cffe2;fill-opacity:1;stroke:none;stroke-width:5.5;stroke-linecap:round;stroke-opacity:1;paint-order:fill markers stroke"
       id="path50"
       sodipodi:type="arc"
       sodipodi:cx="-494.82587"
       sodipodi:cy="17.808081"
       sodipodi:rx="53.378891"
       sodipodi:ry="18.359375"
       sodipodi:start="5.5210388"
       sodipodi:end="5.0558407"
       sodipodi:open="true"
       sodipodi:arc-type="arc"
       d="m -456.21395,5.131378 a 53.378891,18.359375 0 0 1 2.47637,24.396374 53.378891,18.359375 0 0 1 -70.16464,3.676875 53.378891,18.359375 0 0 1 -18.75983,-23.5430636 53.378891,18.359375 0 0 1 65.81095,-9.14063255" />
  </g>
  <g
     inkscape:label="Layer 1"
     inkscape:groupmode="layer"
     id="layer1"
     transform="translate(536.9592,16.572815)">
    <g
       id="text1"
       style="font-size:99.9198px;stroke-width:1.04082"
       aria-label="KANAT&#10;KITTEN"
       transform="translate(-536.9592,-16.572815)">
      <path
         style="font-weight:800;font-family:'JetBrainsMono Nerd Font Mono';-inkscape-font-specification:'JetBrainsMono Nerd Font Mono Ultra-Bold';text-align:center;text-anchor:middle;fill:#70ff8d"
         d="m 368.1598,229.37317 v -59.45228 h -18.48517 v -13.48917 h 51.9583 v 13.48917 h -18.48516 v 59.45228 z"
         id="path36" />
      <path
         style="font-weight:800;font-family:'JetBrainsMono Nerd Font Mono';-inkscape-font-specification:'JetBrainsMono Nerd Font Mono Ultra-Bold';text-align:center;text-anchor:middle;fill:#8dff70"
         d="m 288.22411,229.37317 17.88565,-72.94145 h 18.98476 L 343.18,229.37317 h -15.28772 l -3.4972,-16.48677 h -17.38604 l -3.4972,16.48677 z m 21.28292,-28.47714 h 12.29014 l -3.4972,-17.58589 q -0.69943,-3.79695 -1.49879,-7.49398 -0.69944,-3.79696 -1.09912,-5.89527 -0.39968,2.09831 -1.09912,5.79535 -0.59952,3.69703 -1.39888,7.49398 z"
         id="path35" />
      <path
         style="font-weight:800;font-family:'JetBrainsMono Nerd Font Mono';-inkscape-font-specification:'JetBrainsMono Nerd Font Mono Ultra-Bold';text-align:center;text-anchor:middle;fill:#46ffb7"
         d="m 231.76957,229.37317 v -72.94145 h 17.48597 l 18.88484,56.45468 q -0.29976,-3.69703 -0.69944,-8.49318 -0.39968,-4.89607 -0.69944,-9.69222 -0.19984,-4.89607 -0.19984,-8.29334 v -29.97594 h 13.18942 v 72.94145 h -17.48597 l -18.685,-56.45469 q 0.29976,3.19744 0.59952,7.59391 0.29976,4.39647 0.4996,8.89286 0.29975,4.49639 0.29975,7.99358 v 31.97434 z"
         id="path34" />
      <path
         style="font-weight:800;font-family:'JetBrainsMono Nerd Font Mono';-inkscape-font-specification:'JetBrainsMono Nerd Font Mono Ultra-Bold';text-align:center;text-anchor:middle;fill:#000000;fill-opacity:1"
         d="m 168.32065,229.37317 17.88564,-72.94145 h 18.98477 l 18.08548,72.94145 h -15.28773 l -3.49719,-16.48677 h -17.38605 l -3.49719,16.48677 z m 21.28292,-28.47714 h 12.29013 l -3.49719,-17.58589 q -0.69944,-3.79695 -1.4988,-7.49398 -0.69944,-3.79696 -1.09912,-5.89527 -0.39967,2.09831 -1.09911,5.79535 -0.59952,3.69703 -1.39888,7.49398 z"
         id="path33" />
      <path
         style="font-weight:800;font-family:'JetBrainsMono Nerd Font Mono';-inkscape-font-specification:'JetBrainsMono Nerd Font Mono Ultra-Bold';text-align:center;text-anchor:middle;fill:#002aff"
         d="m 112.36571,229.37317 v -72.94145 h 14.98797 v 28.57706 h 6.99439 l 12.19021,-28.57706 h 16.18701 l -15.18781,34.47233 15.78733,38.46912 h -16.38685 l -12.48997,-31.2749 h -7.09431 v 31.2749 z"
         id="path26" />
      <path
         style="font-weight:800;font-family:'JetBrainsMono Nerd Font Mono';-inkscape-font-specification:'JetBrainsMono Nerd Font Mono Ultra-Bold';text-align:center;text-anchor:middle;fill:#e20000"
         d="m 381.64889,355.56804 v -72.94145 h 17.48596 l 18.88484,56.45469 q -0.29976,-3.69704 -0.69944,-8.49319 -0.39967,-4.89607 -0.69943,-9.69222 -0.19984,-4.89607 -0.19984,-8.29334 v -29.97594 h 13.18941 v 72.94145 h -17.48596 l -18.68501,-56.45468 q 0.29976,3.19743 0.59952,7.5939 0.29976,4.39647 0.4996,8.89286 0.29976,4.4964 0.29976,7.99359 v 31.97433 z"
         id="path41" />
      <path
         style="font-weight:800;font-family:'JetBrainsMono Nerd Font Mono';-inkscape-font-specification:'JetBrainsMono Nerd Font Mono Ultra-Bold';text-align:center;text-anchor:middle;fill:#000000;fill-opacity:1"
         d="m 323.69556,355.56804 v -72.94145 h 44.96391 v 12.98957 h -30.2757 v 16.38685 h 26.77851 v 12.39006 h -26.77851 v 18.1854 h 30.2757 v 12.98957 z"
         id="path40" />
      <path
         style="font-weight:800;font-family:'JetBrainsMono Nerd Font Mono';-inkscape-font-specification:'JetBrainsMono Nerd Font Mono Ultra-Bold';text-align:center;text-anchor:middle;fill:#ff7f00"
         d="m 278.23221,355.56804 v -59.45228 h -18.48516 v -13.48917 h 51.95829 v 13.48917 h -18.48516 v 59.45228 z"
         id="path39" />
      <path
         style="font-weight:800;font-family:'JetBrainsMono Nerd Font Mono';-inkscape-font-specification:'JetBrainsMono Nerd Font Mono Ultra-Bold';text-align:center;text-anchor:middle;fill:#ff9b00"
         d="m 218.28047,355.56804 v -59.45228 h -18.48516 v -13.48917 h 51.9583 v 13.48917 h -18.48517 v 59.45228 z"
         id="path38" />
      <path
         style="font-weight:800;font-family:'JetBrainsMono Nerd Font Mono';-inkscape-font-specification:'JetBrainsMono Nerd Font Mono Ultra-Bold';text-align:center;text-anchor:middle;fill:#ffe200"
         d="m 143.84037,355.56804 v -13.48917 h 14.48838 v -45.96311 h -14.48838 v -13.48917 h 43.96472 v 13.48917 h -14.48837 v 45.96311 h 14.48837 v 13.48917 z"
         id="path37" />
      <path
         style="font-weight:800;font-family:'JetBrainsMono Nerd Font Mono';-inkscape-font-specification:'JetBrainsMono Nerd Font Mono Ultra-Bold';text-align:center;text-anchor:middle;fill:#d4ff2a"
         d="m 82.389849,355.56804 v -72.94145 h 14.98797 v 28.57706 h 6.994381 l 12.19022,-28.57706 h 16.18701 l -15.18781,34.47233 15.78733,38.46912 H 116.9621 l -12.48998,-31.27489 h -7.094301 v 31.27489 z"
         id="path27" />
    </g>
    <path
       style="baseline-shift:baseline;display:inline;overflow:visible;opacity:1;vector-effect:none;fill:#0efff0;fill-opacity:1;stroke-linecap:round;enable-background:accumulate;stop-color:#000000;stop-opacity:1"
       d="M -480.60764,91.823665 V 232.70063 a 3,3 0 0 0 3,3 3,3 0 0 0 3,-3 V 97.823665 h 252.66406 a 3,3 0 0 0 3,-3 3,3 0 0 0 -3,-3 z"
       id="path42" />
    <path
       style="fill:#000000;stroke:none;stroke-width:5;stroke-dasharray:none"
       d="m -243.83436,241.68696 -37.12484,-2.25977"
       id="path43" />
    <path
       style="baseline-shift:baseline;display:inline;overflow:visible;opacity:1;vector-effect:none;stroke-linecap:round;enable-background:accumulate;stop-color:#000000;stop-opacity:1"
       d="m -280.9592,236.42719 a 3,3 0 0 0 -3,3 3,3 0 0 0 3,3 h 214.26172 v 117.6875 h -210.51563 a 3,3 0 0 0 -3,3 3,3 0 0 0 3,3 h 216.51563 v -129.6875 z"
       id="path44" />
    <path
       style="font-variation-settings:normal;opacity:1;vector-effect:none;fill:none;fill-opacity:1;stroke:url(#linearGradient64);stroke-width:2;stroke-linecap:round;stroke-linejoin:miter;stroke-miterlimit:4;stroke-dasharray:none;stroke-dashoffset:0;stroke-opacity:1;-inkscape-stroke:none;stop-color:#000000;stop-opacity:1"
       d="M -480.1086,7.3162142 V 62.842065"
       id="path45" />
    <path
       style="font-variation-settings:normal;opacity:1;vector-effect:none;fill:none;fill-opacity:1;stroke:url(#linearGradient60);stroke-width:2;stroke-linecap:round;stroke-linejoin:miter;stroke-miterlimit:4;stroke-dasharray:none;stroke-dashoffset:0;stroke-opacity:1;-inkscape-stroke:none;stop-color:#000000;stop-opacity:1"
       d="m -452.34567,35.07914 h -55.52585"
       id="path46" />
    <path
       style="font-variation-settings:normal;opacity:1;vector-effect:none;fill:none;fill-opacity:1;stroke:url(#linearGradient58);stroke-width:2;stroke-linecap:round;stroke-linejoin:miter;stroke-miterlimit:4;stroke-dasharray:none;stroke-dashoffset:0;stroke-opacity:1;-inkscape-stroke:none;stop-color:#000000;stop-opacity:1"
       d="m -190.11837,406.0557 -58.65221,58.65219"
       id="path47" />
    <path
       style="fill:none;stroke:url(#linearGradient56);stroke-width:2;stroke-linecap:round;stroke-dasharray:none"
       d="m -190.11836,464.7079 -58.65221,-58.65222"
       id="path48" />
    <path
       style="baseline-shift:baseline;display:inline;overflow:visible;opacity:1;vector-effect:none;fill:#000000;fill-opacity:1;stroke-linecap:round;enable-background:accumulate;stop-color:#000000;stop-opacity:1"
       d="m -431.46339,370.93078 c -18.06475,0.89087 -34.8815,11.57688 -42.93522,28.82171 -10.7383,22.99311 -2.53695,50.44505 19.05479,63.77887 21.59173,13.33382 49.81141,8.37351 65.56061,-11.52515 15.74919,-19.89865 14.0963,-48.50323 -3.84044,-66.45503 a 3,3 0 0 0 -4.24332,-7.8e-4 3,3 0 0 0 -0.003,4.2414 c 15.81939,15.83266 17.27123,40.94108 3.38116,58.49078 -13.89007,17.54971 -38.6585,21.90401 -57.70142,10.14419 -19.04293,-11.75981 -26.24297,-35.85676 -16.77229,-56.13562 9.47069,-20.27886 32.5684,-30.2256 53.80923,-23.172 a 3,3 0 0 0 3.79351,-1.90156 3,3 0 0 0 -1.90155,-3.79351 c -6.02096,-1.99943 -12.18071,-2.79025 -18.20229,-2.4933 z"
       id="path72" />
    <path
       style="baseline-shift:baseline;display:inline;overflow:visible;opacity:1;vector-effect:none;fill:#000000;fill-opacity:1;stroke-linecap:round;paint-order:fill markers stroke;enable-background:accumulate;stop-color:#000000;stop-opacity:1"
       d="M -540.7092,-20.322815 V 499.17719 h 519.5 V -20.322815 Z m 7.5,7.5 h 504.5 V 491.67719 h -504.5 z"
       id="rect72" />
    <path
       style="fill:#1c1c1c;stroke:#000000;stroke-width:5.49999;stroke-linecap:round;stroke-dasharray:none;paint-order:fill markers stroke"
       d="m -241.08435,-13.822815 54.94842,41.970171 39.6067,30.251999 m 17.7652,13.569251 21.84148,16.682739 79.21337,60.503995"
       id="path1"
       sodipodi:nodetypes="cccccc" />
    <path
       style="baseline-shift:baseline;display:inline;overflow:visible;vector-effect:none;fill:#000000;fill-opacity:1;stroke-width:1;stroke-linecap:round;paint-order:fill markers stroke;enable-background:accumulate;stop-color:#000000"
       d="M -14.9592,-16.572815 V 495.42718 H 497.50955 V -16.572815 Z m 7.3984902,7.3917229 H 490.11106 V 488.03546 H -7.5607098 Z"
       id="rect72-1" />
  </g>
</svg>
